# xmcd CD database file
#
# Track frame offsets:
#	150
#	15450
#	27940
#	44282
#	59795
#	74755
#	87745
#	99627
#	116825
#	133190
#	144320
#	164412
#
# Disc length: 2475 seconds
#
# Revision: 2
# Processed by: cddbd v1.5.2PL0 Copyright (c) Steve Scherf et al.
# Submitted via: CDex 1.70beta2
#
DISCID=b609a90c
DTITLE=Hugh Moffatt - The Life Of A Minor Poet
DYEAR=1996
DGENRE=Country
TTITLE0=New Moon Light
TTITLE1=Sugar Dream
TTITLE2=Love Game
TTITLE3=Somewhere Among The Briars
TTITLE4=Money, Too
TTITLE5=I Know The Difference Now
TTITLE6=Be My Brontosaurus Baby
TTITLE7=The Old Days
TTITLE8=A Red Rose For Lisa
TTITLE9=Angels
TTITLE10=Another Road
TTITLE11=The Life Of A Minor Poet
EXTD=YEAR: 1996
EXTT0=
EXTT1=
EXTT2=
EXTT3=
EXTT4=
EXTT5=
EXTT6=
EXTT7=
EXTT8=
EXTT9=
EXTT10=
EXTT11=
PLAYORDER=
